<svg xmlns="http://www.w3.org/2000/svg" viewBox="0 0 607.62 277.18"><defs><style>.cls-1{fill:#151924;}</style></defs><g id="Layer_2" data-name="Layer 2"><g id="Layer_1-2" data-name="Layer 1"><path class="cls-1" d="M23.79,2.48a4.65,4.65,0,0,1,4.86,4.86c0,1.15,0,114.92,0,117v.5H38v-.5c0-2.14,0-115.84,0-117a4.81,4.81,0,0,1,4.49-4.86H58.9a4.65,4.65,0,0,1,4.86,4.86V124.83h9.33v-.5c0-2.45,0-49.16,0-49.16a3.44,3.44,0,0,1,3.57-3.38H107a3.43,3.43,0,0,1,3.56,3.38c0,.47,0,47,0,49.14v.52h61.09v-2.48h-.51c-.37,0-45.92,0-46.38,0a4.75,4.75,0,0,1-4.86-4.86V78.12a6.7,6.7,0,0,1,6.52-6.7c.27,0,27.29,0,28.11,0h.5V69.11h-.52c-.4,0-18.55,0-28.09,0a6.7,6.7,0,0,1-6.52-6.71V7.34a5,5,0,0,1,4.86-4.86c1.88,0,46,0,46.41,0l.48,0V0h-61V.5c0,2.2,0,64.61,0,65.24A3.62,3.62,0,0,1,107,69.31H76.65a3.62,3.62,0,0,1-3.57-3.57V63.52c0-.62,0-61.07,0-63V0H0V2.49H.51C3.52,2.45,23.58,2.48,23.79,2.48Z"/><path class="cls-1" d="M118.43,213.61c.55,13.67-4.16,33.38-13,42.76a8.77,8.77,0,0,1-1.12,1.16,7.55,7.55,0,0,0-.57.53c-9.83,9.31-23.14,13.86-37.45,12.83-31-2.09-57.88-29-60-60-1-13.81,3.23-26.8,11.94-36.56L20,172.6a48.31,48.31,0,0,1,34.5-13.86c.32,0,7.72,0,8.47,0l.48,0,0-6.06h-1.9A61.84,61.84,0,0,0,18.23,171a62.72,62.72,0,0,0-18,49.62C2.85,250.11,27.06,274.33,56.55,277c1.76.15,3.51.22,5.26.22A62.56,62.56,0,0,0,106.16,259a61.84,61.84,0,0,0,18.36-44v-1.9h-6.11Z"/><path class="cls-1" d="M183.64,152.35v.5c0,2.49,0,65.24,0,65.24a3.61,3.61,0,0,1-3.56,3.57H149.58a3.45,3.45,0,0,1-3.39-3.57V152.35h-9.31V277.18h9.31V227.52a3.31,3.31,0,0,1,3.39-3.38h30.49a3.43,3.43,0,0,1,3.56,3.38c0,.47,0,47.33,0,49.16v.5h9.15V152.35Z"/><path class="cls-1" d="M267.68,152.35a62.42,62.42,0,1,0,44,18.36A62.06,62.06,0,0,0,267.68,152.35Zm7.71,118.57c-16.12,0-32.4-7-44.66-19.29-11.36-11.35-18.17-25.82-19.19-40.73s3.87-28.54,13.76-38.43c9.07-9.07,21.06-13.86,34.68-13.86,16,0,32.22,7,44.48,19.29a64.05,64.05,0,0,1,19.05,40.73c1,15-3.82,28.62-13.63,38.43C301.11,266,288.86,270.92,275.39,270.92Z"/><path class="cls-1" d="M459,267.18h0a56.29,56.29,0,0,0-47.25-46.62.58.58,0,0,1-.61-.43.81.81,0,0,1,.3-.86C423,212.6,430,200.53,429.59,187.78a36,36,0,0,0-36-35.43H342.28V277.18h9.3v-.5c0-2.47,0-30.58,0-30.86a11.2,11.2,0,0,1,1.58-5.84,33.36,33.36,0,0,1,28.23-15.66h11.45a37.22,37.22,0,0,0,10.29-1.49l.46-.12a5.37,5.37,0,0,1,1.26-.24c25,.37,46.64,18.77,51.45,43.77a7,7,0,0,1-1.47,5.84,7.24,7.24,0,0,1-5.62,2.62h-.5v2.48H468.4V274.7h-.5A9.07,9.07,0,0,1,459,267.18ZM351.6,159.69a4.68,4.68,0,0,1,4.49-4.86H393.6a27.66,27.66,0,0,1,7.94.89c10.76,4.45,18,17.56,18,32.62,0,13.86-6.5,26.68-16.18,31.9-2.38,1.18-6.59,1.6-9.75,1.6H381.41A35.25,35.25,0,0,0,356,232.66a3.34,3.34,0,0,1-1.92.83,2.58,2.58,0,0,1-2.45-2.64Z"/><path class="cls-1" d="M548,152.35H480.76V277.18H548c32.88-1.49,59.62-29.49,59.62-62.41S580.88,153.84,548,152.35Zm-58.11,7.34a4.87,4.87,0,0,1,4.86-4.86h51.74c28.06.73,50.89,27.62,50.89,59.94,0,32.12-22.66,59-50.51,59.93H494.75a4.87,4.87,0,0,1-4.86-4.86Z"/></g></g></svg>